<?xml version="1.0" encoding="UTF-8" standalone="no"?>
<!DOCTYPE svg PUBLIC "-//W3C//DTD SVG 1.1//EN"
 "http://www.w3.org/Graphics/SVG/1.1/DTD/svg11.dtd">
<!-- Generated by graphviz version 7.1.0 (20230121.1956)
 -->
<!-- Pages: 1 -->
<svg width="474pt" height="100pt"
 viewBox="0.00 0.00 474.00 100.00" xmlns="http://www.w3.org/2000/svg" xmlns:xlink="http://www.w3.org/1999/xlink">
<g id="graph0" class="graph" transform="scale(1 1) rotate(0) translate(4 96)">
<polygon fill="white" stroke="none" points="-4,4 -4,-96 470,-96 470,4 -4,4"/>
<text text-anchor="middle" x="233" y="-7.8" font-family="Times New Roman,serif" font-size="14.00">Compiled DFA INITIAL::/\*[.&#45;&#45;*]*\*/</text>
<!-- node_0 -->
<g id="node1" class="node">
<title>node_0</title>
<ellipse fill="none" stroke="blue" stroke-width="3" cx="18" cy="-41" rx="18" ry="18"/>
<text text-anchor="middle" x="18" y="-37.3" font-family="Times New Roman,serif" font-size="14.00">0</text>
</g>
<!-- node_2 -->
<g id="node3" class="node">
<title>node_2</title>
<ellipse fill="none" stroke="black" cx="113" cy="-41" rx="27" ry="18"/>
<text text-anchor="middle" x="113" y="-37.3" font-family="Times New Roman,serif" font-size="14.00">2</text>
</g>
<!-- node_0&#45;&gt;node_2 -->
<g id="edge1" class="edge">
<title>node_0&#45;&gt;node_2</title>
<path fill="none" stroke="black" d="M37.37,-41C47.91,-41 61.54,-41 74.25,-41"/>
<polygon fill="black" stroke="black" points="74.05,-44.5 84.05,-41 74.05,-37.5 74.05,-44.5"/>
<text text-anchor="middle" x="61" y="-44.8" font-family="Times New Roman,serif" font-size="14.00">/</text>
</g>
<!-- node_1 -->
<g id="node2" class="node">
<title>node_1</title>
<ellipse fill="none" stroke="black" cx="335" cy="-41" rx="27" ry="18"/>
<text text-anchor="middle" x="335" y="-37.3" font-family="Times New Roman,serif" font-size="14.00">1</text>
</g>
<!-- node_4 -->
<g id="node5" class="node">
<title>node_4</title>
<ellipse fill="none" stroke="red" stroke-width="3" cx="439" cy="-41" rx="27" ry="18"/>
<text text-anchor="middle" x="439" y="-37.3" font-family="Times New Roman,serif" font-size="14.00">4</text>
</g>
<!-- node_1&#45;&gt;node_4 -->
<g id="edge2" class="edge">
<title>node_1&#45;&gt;node_4</title>
<path fill="none" stroke="black" d="M362.27,-41C373.54,-41 386.94,-41 399.31,-41"/>
<polygon fill="black" stroke="black" points="399.24,-44.5 409.24,-41 399.24,-37.5 399.24,-44.5"/>
<text text-anchor="middle" x="387" y="-44.8" font-family="Times New Roman,serif" font-size="14.00">/</text>
</g>
<!-- node_3 -->
<g id="node4" class="node">
<title>node_3</title>
<ellipse fill="none" stroke="black" cx="224" cy="-41" rx="27" ry="18"/>
<text text-anchor="middle" x="224" y="-37.3" font-family="Times New Roman,serif" font-size="14.00">3</text>
</g>
<!-- node_2&#45;&gt;node_3 -->
<g id="edge3" class="edge">
<title>node_2&#45;&gt;node_3</title>
<path fill="none" stroke="black" d="M140.39,-41C153.91,-41 170.61,-41 185.45,-41"/>
<polygon fill="black" stroke="black" points="185.34,-44.5 195.34,-41 185.34,-37.5 185.34,-44.5"/>
<text text-anchor="middle" x="168.5" y="-44.8" font-family="Times New Roman,serif" font-size="14.00">\*</text>
</g>
<!-- node_3&#45;&gt;node_1 -->
<g id="edge4" class="edge">
<title>node_3&#45;&gt;node_1</title>
<path fill="none" stroke="black" d="M251.39,-41C264.91,-41 281.61,-41 296.45,-41"/>
<polygon fill="black" stroke="black" points="296.34,-44.5 306.34,-41 296.34,-37.5 296.34,-44.5"/>
<text text-anchor="middle" x="279.5" y="-44.8" font-family="Times New Roman,serif" font-size="14.00">\*</text>
</g>
<!-- node_3&#45;&gt;node_3 -->
<g id="edge5" class="edge">
<title>node_3&#45;&gt;node_3</title>
<path fill="none" stroke="black" d="M214.17,-58.04C212.16,-67.86 215.44,-77 224,-77 228.95,-77 232.14,-73.94 233.55,-69.47"/>
<polygon fill="black" stroke="black" points="237.05,-69.63 233.8,-59.55 230.05,-69.46 237.05,-69.63"/>
<text text-anchor="middle" x="224" y="-80.8" font-family="Times New Roman,serif" font-size="14.00">[.&#45;&#45;*]</text>
</g>
</g>
</svg>
