<?xml version="1.0" encoding="UTF-8" standalone="no"?>
<!DOCTYPE svg PUBLIC "-//W3C//DTD SVG 1.1//EN"
 "http://www.w3.org/Graphics/SVG/1.1/DTD/svg11.dtd">
<!-- Generated by graphviz version 7.1.0 (20230121.1956)
 -->
<!-- Pages: 1 -->
<svg width="755pt" height="212pt"
 viewBox="0.00 0.00 755.00 212.00" xmlns="http://www.w3.org/2000/svg" xmlns:xlink="http://www.w3.org/1999/xlink">
<g id="graph0" class="graph" transform="scale(1 1) rotate(0) translate(4 208)">
<polygon fill="white" stroke="none" points="-4,4 -4,-208 751,-208 751,4 -4,4"/>
<text text-anchor="middle" x="373.5" y="-7.8" font-family="Times New Roman,serif" font-size="14.00">Compiled NFA INITIAL &#45; /\*([.&#45;&#45;*]|\*[^/])*\*/</text>
<!-- node_0 -->
<g id="node1" class="node">
<title>node_0</title>
<ellipse fill="none" stroke="blue" stroke-width="3" cx="18" cy="-143" rx="18" ry="18"/>
<text text-anchor="middle" x="18" y="-139.3" font-family="Times New Roman,serif" font-size="14.00">0</text>
</g>
<!-- node_1 -->
<g id="node2" class="node">
<title>node_1</title>
<ellipse fill="none" stroke="black" cx="103" cy="-143" rx="27" ry="18"/>
<text text-anchor="middle" x="103" y="-139.3" font-family="Times New Roman,serif" font-size="14.00">1</text>
</g>
<!-- node_0&#45;&gt;node_1 -->
<g id="edge1" class="edge">
<title>node_0&#45;&gt;node_1</title>
<path fill="none" stroke="black" d="M37.42,-143C45.43,-143 55.13,-143 64.55,-143"/>
<polygon fill="black" stroke="black" points="64.25,-146.5 74.25,-143 64.25,-139.5 64.25,-146.5"/>
<text text-anchor="middle" x="56" y="-146.8" font-family="Times New Roman,serif" font-size="14.00">/</text>
</g>
<!-- node_2 -->
<g id="node3" class="node">
<title>node_2</title>
<ellipse fill="none" stroke="black" cx="204" cy="-143" rx="27" ry="18"/>
<text text-anchor="middle" x="204" y="-139.3" font-family="Times New Roman,serif" font-size="14.00">2</text>
</g>
<!-- node_1&#45;&gt;node_2 -->
<g id="edge2" class="edge">
<title>node_1&#45;&gt;node_2</title>
<path fill="none" stroke="black" d="M130.27,-143C141.01,-143 153.64,-143 165.33,-143"/>
<polygon fill="black" stroke="black" points="165.09,-146.5 175.09,-143 165.09,-139.5 165.09,-146.5"/>
<text text-anchor="middle" x="153.5" y="-146.8" font-family="Times New Roman,serif" font-size="14.00">\*</text>
</g>
<!-- node_3 -->
<g id="node4" class="node">
<title>node_3</title>
<ellipse fill="none" stroke="black" cx="305" cy="-84" rx="27" ry="18"/>
<text text-anchor="middle" x="305" y="-80.3" font-family="Times New Roman,serif" font-size="14.00">3</text>
</g>
<!-- node_2&#45;&gt;node_3 -->
<g id="edge3" class="edge">
<title>node_2&#45;&gt;node_3</title>
<path fill="none" stroke="black" d="M223.62,-130.23C231.38,-125.05 240.53,-119.09 249,-114 256.71,-109.36 265.19,-104.59 273.12,-100.25"/>
<polygon fill="black" stroke="black" points="274.67,-103.4 281.8,-95.57 271.34,-97.24 274.67,-103.4"/>
<text text-anchor="middle" x="254.5" y="-117.8" font-family="Times New Roman,serif" font-size="14.00">\*</text>
</g>
<!-- node_4 -->
<g id="node5" class="node">
<title>node_4</title>
<ellipse fill="none" stroke="black" cx="644" cy="-100" rx="27" ry="18"/>
<text text-anchor="middle" x="644" y="-96.3" font-family="Times New Roman,serif" font-size="14.00">4</text>
</g>
<!-- node_2&#45;&gt;node_4 -->
<g id="edge4" class="edge">
<title>node_2&#45;&gt;node_4</title>
<path fill="none" stroke="black" d="M222.13,-156.55C241.03,-170.12 272.92,-189 304,-189 304,-189 304,-189 544,-189 581.54,-189 611.3,-153.17 628.04,-126.97"/>
<polygon fill="black" stroke="black" points="631.01,-128.82 633.22,-118.45 625.03,-125.18 631.01,-128.82"/>
<text text-anchor="middle" x="424" y="-192.8" font-family="Times New Roman,serif" font-size="14.00">\*</text>
</g>
<!-- node_5 -->
<g id="node6" class="node">
<title>node_5</title>
<ellipse fill="none" stroke="black" cx="543" cy="-100" rx="27" ry="18"/>
<text text-anchor="middle" x="543" y="-96.3" font-family="Times New Roman,serif" font-size="14.00">5</text>
</g>
<!-- node_2&#45;&gt;node_5 -->
<g id="edge5" class="edge">
<title>node_2&#45;&gt;node_5</title>
<path fill="none" stroke="black" d="M231,-141.05C282.31,-136.99 400.09,-126.59 498,-110 500.67,-109.55 503.43,-109.03 506.19,-108.49"/>
<polygon fill="black" stroke="black" points="506.9,-111.91 515.95,-106.41 505.44,-105.07 506.9,-111.91"/>
<text text-anchor="middle" x="364.5" y="-132.8" font-family="Times New Roman,serif" font-size="14.00">[.&#45;&#45;*]</text>
</g>
<!-- node_6 -->
<g id="node7" class="node">
<title>node_6</title>
<ellipse fill="none" stroke="black" cx="424" cy="-41" rx="27" ry="18"/>
<text text-anchor="middle" x="424" y="-37.3" font-family="Times New Roman,serif" font-size="14.00">6</text>
</g>
<!-- node_3&#45;&gt;node_6 -->
<g id="edge6" class="edge">
<title>node_3&#45;&gt;node_6</title>
<path fill="none" stroke="black" d="M329.12,-75.5C346.26,-69.2 369.9,-60.51 389.17,-53.43"/>
<polygon fill="black" stroke="black" points="390.33,-56.73 398.51,-50 387.92,-50.16 390.33,-56.73"/>
<text text-anchor="middle" x="364.5" y="-70.8" font-family="Times New Roman,serif" font-size="14.00">[^/]</text>
</g>
<!-- node_7 -->
<g id="node8" class="node">
<title>node_7</title>
<ellipse fill="none" stroke="red" stroke-width="3" cx="729" cy="-100" rx="18" ry="18"/>
<text text-anchor="middle" x="729" y="-96.3" font-family="Times New Roman,serif" font-size="14.00">7</text>
</g>
<!-- node_4&#45;&gt;node_7 -->
<g id="edge7" class="edge">
<title>node_4&#45;&gt;node_7</title>
<path fill="none" stroke="black" d="M671.26,-100C679.82,-100 689.37,-100 698.17,-100"/>
<polygon fill="black" stroke="black" points="698.01,-103.5 708.01,-100 698.01,-96.5 698.01,-103.5"/>
<text text-anchor="middle" x="691" y="-103.8" font-family="Times New Roman,serif" font-size="14.00">/</text>
</g>
<!-- node_5&#45;&gt;node_3 -->
<g id="edge8" class="edge">
<title>node_5&#45;&gt;node_3</title>
<path fill="none" stroke="black" d="M515.73,-98.22C473.83,-95.38 391.73,-89.81 343.61,-86.55"/>
<polygon fill="black" stroke="black" points="343.88,-83.06 333.67,-85.88 343.41,-90.04 343.88,-83.06"/>
<text text-anchor="middle" x="424" y="-96.8" font-family="Times New Roman,serif" font-size="14.00">\*</text>
</g>
<!-- node_5&#45;&gt;node_4 -->
<g id="edge9" class="edge">
<title>node_5&#45;&gt;node_4</title>
<path fill="none" stroke="black" d="M570.27,-100C581.01,-100 593.64,-100 605.33,-100"/>
<polygon fill="black" stroke="black" points="605.09,-103.5 615.09,-100 605.09,-96.5 605.09,-103.5"/>
<text text-anchor="middle" x="593.5" y="-103.8" font-family="Times New Roman,serif" font-size="14.00">\*</text>
</g>
<!-- node_5&#45;&gt;node_5 -->
<g id="edge10" class="edge">
<title>node_5&#45;&gt;node_5</title>
<path fill="none" stroke="black" d="M533.98,-117.41C532.3,-127.09 535.31,-136 543,-136 547.45,-136 550.33,-133.02 551.64,-128.64"/>
<polygon fill="black" stroke="black" points="555.13,-129.03 551.97,-118.92 548.13,-128.8 555.13,-129.03"/>
<text text-anchor="middle" x="543" y="-139.8" font-family="Times New Roman,serif" font-size="14.00">[.&#45;&#45;*]</text>
</g>
<!-- node_6&#45;&gt;node_3 -->
<g id="edge11" class="edge">
<title>node_6&#45;&gt;node_3</title>
<path fill="none" stroke="black" d="M398.38,-34.83C383.75,-32.4 365.16,-31.52 350,-38 339.7,-42.4 330.66,-50.53 323.5,-58.74"/>
<polygon fill="black" stroke="black" points="320.94,-56.33 317.43,-66.33 326.41,-60.7 320.94,-56.33"/>
<text text-anchor="middle" x="364.5" y="-41.8" font-family="Times New Roman,serif" font-size="14.00">\*</text>
</g>
<!-- node_6&#45;&gt;node_4 -->
<g id="edge12" class="edge">
<title>node_6&#45;&gt;node_4</title>
<path fill="none" stroke="black" d="M451.35,-40.93C480.94,-41.56 530.05,-44.79 570,-58 586.04,-63.3 602.47,-72.38 615.68,-80.74"/>
<polygon fill="black" stroke="black" points="613.54,-83.52 623.82,-86.08 617.38,-77.67 613.54,-83.52"/>
<text text-anchor="middle" x="543" y="-61.8" font-family="Times New Roman,serif" font-size="14.00">\*</text>
</g>
<!-- node_6&#45;&gt;node_5 -->
<g id="edge13" class="edge">
<title>node_6&#45;&gt;node_5</title>
<path fill="none" stroke="black" d="M448.54,-49.35C463.1,-54.83 482.01,-62.55 498,-71 503.56,-73.94 509.31,-77.39 514.74,-80.87"/>
<polygon fill="black" stroke="black" points="512.54,-83.61 522.81,-86.22 516.41,-77.77 512.54,-83.61"/>
<text text-anchor="middle" x="483.5" y="-74.8" font-family="Times New Roman,serif" font-size="14.00">[.&#45;&#45;*]</text>
</g>
</g>
</svg>
