<?xml version="1.0" encoding="UTF-8" standalone="no"?>
<!DOCTYPE svg PUBLIC "-//W3C//DTD SVG 1.1//EN"
 "http://www.w3.org/Graphics/SVG/1.1/DTD/svg11.dtd">
<!-- Generated by graphviz version 7.1.0 (20230121.1956)
 -->
<!-- Pages: 1 -->
<svg width="510pt" height="126pt"
 viewBox="0.00 0.00 510.00 126.00" xmlns="http://www.w3.org/2000/svg" xmlns:xlink="http://www.w3.org/1999/xlink">
<g id="graph0" class="graph" transform="scale(1 1) rotate(0) translate(4 122)">
<polygon fill="white" stroke="none" points="-4,4 -4,-122 506,-122 506,4 -4,4"/>
<text text-anchor="middle" x="251" y="-7.8" font-family="Times New Roman,serif" font-size="14.00">Compiled NFA INITIAL &#45; /\*.*\*/</text>
<!-- node_0 -->
<g id="node1" class="node">
<title>node_0</title>
<ellipse fill="none" stroke="blue" stroke-width="3" cx="18" cy="-85" rx="18" ry="18"/>
<text text-anchor="middle" x="18" y="-81.3" font-family="Times New Roman,serif" font-size="14.00">0</text>
</g>
<!-- node_1 -->
<g id="node2" class="node">
<title>node_1</title>
<ellipse fill="none" stroke="black" cx="103" cy="-85" rx="27" ry="18"/>
<text text-anchor="middle" x="103" y="-81.3" font-family="Times New Roman,serif" font-size="14.00">1</text>
</g>
<!-- node_0&#45;&gt;node_1 -->
<g id="edge1" class="edge">
<title>node_0&#45;&gt;node_1</title>
<path fill="none" stroke="black" d="M37.42,-85C45.43,-85 55.13,-85 64.55,-85"/>
<polygon fill="black" stroke="black" points="64.25,-88.5 74.25,-85 64.25,-81.5 64.25,-88.5"/>
<text text-anchor="middle" x="56" y="-88.8" font-family="Times New Roman,serif" font-size="14.00">/</text>
</g>
<!-- node_2 -->
<g id="node3" class="node">
<title>node_2</title>
<ellipse fill="none" stroke="black" cx="204" cy="-85" rx="27" ry="18"/>
<text text-anchor="middle" x="204" y="-81.3" font-family="Times New Roman,serif" font-size="14.00">2</text>
</g>
<!-- node_1&#45;&gt;node_2 -->
<g id="edge2" class="edge">
<title>node_1&#45;&gt;node_2</title>
<path fill="none" stroke="black" d="M130.27,-85C141.01,-85 153.64,-85 165.33,-85"/>
<polygon fill="black" stroke="black" points="165.09,-88.5 175.09,-85 165.09,-81.5 165.09,-88.5"/>
<text text-anchor="middle" x="153.5" y="-88.8" font-family="Times New Roman,serif" font-size="14.00">\*</text>
</g>
<!-- node_3 -->
<g id="node4" class="node">
<title>node_3</title>
<ellipse fill="none" stroke="black" cx="399" cy="-85" rx="27" ry="18"/>
<text text-anchor="middle" x="399" y="-81.3" font-family="Times New Roman,serif" font-size="14.00">3</text>
</g>
<!-- node_2&#45;&gt;node_3 -->
<g id="edge3" class="edge">
<title>node_2&#45;&gt;node_3</title>
<path fill="none" stroke="black" d="M229.2,-92.33C241.57,-95.7 256.95,-99.32 271,-101 294.83,-103.85 301.14,-103.58 325,-101 337.41,-99.66 350.81,-97.06 362.7,-94.35"/>
<polygon fill="black" stroke="black" points="363.17,-97.83 372.08,-92.1 361.54,-91.02 363.17,-97.83"/>
<text text-anchor="middle" x="298" y="-106.8" font-family="Times New Roman,serif" font-size="14.00">\*</text>
</g>
<!-- node_4 -->
<g id="node5" class="node">
<title>node_4</title>
<ellipse fill="none" stroke="black" cx="298" cy="-41" rx="27" ry="18"/>
<text text-anchor="middle" x="298" y="-37.3" font-family="Times New Roman,serif" font-size="14.00">4</text>
</g>
<!-- node_2&#45;&gt;node_4 -->
<g id="edge4" class="edge">
<title>node_2&#45;&gt;node_4</title>
<path fill="none" stroke="black" d="M226.34,-74.79C237.87,-69.28 252.33,-62.36 265.16,-56.23"/>
<polygon fill="black" stroke="black" points="266.58,-59.43 274.09,-51.96 263.56,-53.11 266.58,-59.43"/>
<text text-anchor="middle" x="251" y="-66.8" font-family="Times New Roman,serif" font-size="14.00">.</text>
</g>
<!-- node_5 -->
<g id="node6" class="node">
<title>node_5</title>
<ellipse fill="none" stroke="red" stroke-width="3" cx="484" cy="-85" rx="18" ry="18"/>
<text text-anchor="middle" x="484" y="-81.3" font-family="Times New Roman,serif" font-size="14.00">5</text>
</g>
<!-- node_3&#45;&gt;node_5 -->
<g id="edge5" class="edge">
<title>node_3&#45;&gt;node_5</title>
<path fill="none" stroke="black" d="M426.26,-85C434.82,-85 444.37,-85 453.17,-85"/>
<polygon fill="black" stroke="black" points="453.01,-88.5 463.01,-85 453.01,-81.5 453.01,-88.5"/>
<text text-anchor="middle" x="446" y="-88.8" font-family="Times New Roman,serif" font-size="14.00">/</text>
</g>
<!-- node_4&#45;&gt;node_3 -->
<g id="edge6" class="edge">
<title>node_4&#45;&gt;node_3</title>
<path fill="none" stroke="black" d="M320.97,-50.77C334.17,-56.63 351.21,-64.2 365.9,-70.73"/>
<polygon fill="black" stroke="black" points="364.15,-73.78 374.71,-74.65 366.99,-67.39 364.15,-73.78"/>
<text text-anchor="middle" x="348.5" y="-67.8" font-family="Times New Roman,serif" font-size="14.00">\*</text>
</g>
<!-- node_4&#45;&gt;node_4 -->
<g id="edge7" class="edge">
<title>node_4&#45;&gt;node_4</title>
<path fill="none" stroke="black" d="M289.61,-58.41C288.04,-68.09 290.84,-77 298,-77 302.14,-77 304.82,-74.02 306.04,-69.64"/>
<polygon fill="black" stroke="black" points="309.53,-70.03 306.34,-59.92 302.54,-69.81 309.53,-70.03"/>
<text text-anchor="middle" x="298" y="-80.8" font-family="Times New Roman,serif" font-size="14.00">.</text>
</g>
</g>
</svg>
