<?xml version="1.0" encoding="UTF-8" standalone="no"?>
<!DOCTYPE svg PUBLIC "-//W3C//DTD SVG 1.1//EN"
 "http://www.w3.org/Graphics/SVG/1.1/DTD/svg11.dtd">
<!-- Generated by graphviz version 7.1.0 (20230121.1956)
 -->
<!-- Pages: 1 -->
<svg width="482pt" height="102pt"
 viewBox="0.00 0.00 482.00 101.87" xmlns="http://www.w3.org/2000/svg" xmlns:xlink="http://www.w3.org/1999/xlink">
<g id="graph0" class="graph" transform="scale(1 1) rotate(0) translate(4 97.87)">
<polygon fill="white" stroke="none" points="-4,4 -4,-97.87 478,-97.87 478,4 -4,4"/>
<text text-anchor="middle" x="237" y="-7.8" font-family="Times New Roman,serif" font-size="14.00">Compiled DFA INITIAL::/\*([.&#45;&#45;*]|\*[^/])*\*/</text>
<!-- node_0 -->
<g id="node1" class="node">
<title>node_0</title>
<ellipse fill="none" stroke="blue" stroke-width="3" cx="18" cy="-42.87" rx="18" ry="18"/>
<text text-anchor="middle" x="18" y="-39.17" font-family="Times New Roman,serif" font-size="14.00">0</text>
</g>
<!-- node_2 -->
<g id="node3" class="node">
<title>node_2</title>
<ellipse fill="none" stroke="black" cx="113" cy="-42.87" rx="27" ry="18"/>
<text text-anchor="middle" x="113" y="-39.17" font-family="Times New Roman,serif" font-size="14.00">2</text>
</g>
<!-- node_0&#45;&gt;node_2 -->
<g id="edge1" class="edge">
<title>node_0&#45;&gt;node_2</title>
<path fill="none" stroke="black" d="M37.37,-42.87C47.91,-42.87 61.54,-42.87 74.25,-42.87"/>
<polygon fill="black" stroke="black" points="74.05,-46.37 84.05,-42.87 74.05,-39.37 74.05,-46.37"/>
<text text-anchor="middle" x="61" y="-46.67" font-family="Times New Roman,serif" font-size="14.00">/:0</text>
</g>
<!-- node_1 -->
<g id="node2" class="node">
<title>node_1</title>
<ellipse fill="none" stroke="black" cx="343" cy="-42.87" rx="27" ry="18"/>
<text text-anchor="middle" x="343" y="-39.17" font-family="Times New Roman,serif" font-size="14.00">1</text>
</g>
<!-- node_3 -->
<g id="node4" class="node">
<title>node_3</title>
<ellipse fill="none" stroke="black" cx="224" cy="-42.87" rx="27" ry="18"/>
<text text-anchor="middle" x="224" y="-39.17" font-family="Times New Roman,serif" font-size="14.00">3</text>
</g>
<!-- node_1&#45;&gt;node_3 -->
<g id="edge3" class="edge">
<title>node_1&#45;&gt;node_3</title>
<path fill="none" stroke="black" d="M320.59,-32.16C313.57,-29.19 305.61,-26.36 298,-24.87 285.35,-22.38 281.65,-22.38 269,-24.87 265.07,-25.64 261.06,-26.76 257.13,-28.08"/>
<polygon fill="black" stroke="black" points="255.93,-24.79 247.83,-31.62 258.42,-31.33 255.93,-24.79"/>
<text text-anchor="middle" x="283.5" y="-28.67" font-family="Times New Roman,serif" font-size="14.00">[^/]:3</text>
</g>
<!-- node_4 -->
<g id="node5" class="node">
<title>node_4</title>
<ellipse fill="none" stroke="red" stroke-width="3" cx="447" cy="-42.87" rx="27" ry="18"/>
<text text-anchor="middle" x="447" y="-39.17" font-family="Times New Roman,serif" font-size="14.00">4</text>
</g>
<!-- node_1&#45;&gt;node_4 -->
<g id="edge2" class="edge">
<title>node_1&#45;&gt;node_4</title>
<path fill="none" stroke="black" d="M370.27,-42.87C381.54,-42.87 394.94,-42.87 407.31,-42.87"/>
<polygon fill="black" stroke="black" points="407.24,-46.37 417.24,-42.87 407.24,-39.37 407.24,-46.37"/>
<text text-anchor="middle" x="395" y="-46.67" font-family="Times New Roman,serif" font-size="14.00">/:0</text>
</g>
<!-- node_2&#45;&gt;node_3 -->
<g id="edge4" class="edge">
<title>node_2&#45;&gt;node_3</title>
<path fill="none" stroke="black" d="M140.39,-42.87C153.91,-42.87 170.61,-42.87 185.45,-42.87"/>
<polygon fill="black" stroke="black" points="185.34,-46.37 195.34,-42.87 185.34,-39.37 185.34,-46.37"/>
<text text-anchor="middle" x="168.5" y="-46.67" font-family="Times New Roman,serif" font-size="14.00">\*:1</text>
</g>
<!-- node_3&#45;&gt;node_1 -->
<g id="edge5" class="edge">
<title>node_3&#45;&gt;node_1</title>
<path fill="none" stroke="black" d="M251.26,-42.87C266.91,-42.87 287.05,-42.87 304.37,-42.87"/>
<polygon fill="black" stroke="black" points="304.32,-46.37 314.32,-42.87 304.32,-39.37 304.32,-46.37"/>
<text text-anchor="middle" x="283.5" y="-46.67" font-family="Times New Roman,serif" font-size="14.00">\*:1</text>
</g>
<!-- node_3&#45;&gt;node_3 -->
<g id="edge6" class="edge">
<title>node_3&#45;&gt;node_3</title>
<path fill="none" stroke="black" d="M214.17,-59.9C212.16,-69.72 215.44,-78.87 224,-78.87 228.95,-78.87 232.14,-75.81 233.55,-71.33"/>
<polygon fill="black" stroke="black" points="237.05,-71.5 233.8,-61.42 230.05,-71.33 237.05,-71.5"/>
<text text-anchor="middle" x="224" y="-82.67" font-family="Times New Roman,serif" font-size="14.00">[.&#45;&#45;*]:2</text>
</g>
</g>
</svg>
